<svg xmlns="http://www.w3.org/2000/svg" width="20" height="20" viewBox="0 0 20 20">
    <path fill="#9B9B9B" fill-rule="nonzero" d="M17.067 2.933A9.927 9.927 0 0 0 10.135.007a1.504 1.504 0 0 0-.27 0 9.927 9.927 0 0 0-6.932 2.926A9.93 9.93 0 0 0 .005 10a9.93 9.93 0 0 0 2.928 7.067 9.926 9.926 0 0 0 6.932 2.926 1.49 1.49 0 0 0 .27 0 9.926 9.926 0 0 0 6.932-2.926A9.93 9.93 0 0 0 19.995 10c0-2.67-1.04-5.18-2.928-7.067zm-13.294.84a8.759 8.759 0 0 1 3.75-2.227 9.541 9.541 0 0 0-.91 1.246c-.365.592-.68 1.233-.945 1.911H2.963c.247-.326.516-.637.81-.93zM2.206 5.89h3.062a14.91 14.91 0 0 0-.553 3.515H1.214a8.737 8.737 0 0 1 .992-3.515zm0 8.218a8.736 8.736 0 0 1-.992-3.515h3.5c.047 1.214.236 2.4.554 3.515H2.207zm1.567 2.118a8.917 8.917 0 0 1-.81-.93h2.705c.264.678.58 1.32.945 1.91.286.465.593.883.91 1.247a8.76 8.76 0 0 1-3.75-2.227zm5.633 2.34c-.495-.324-1.16-.974-1.782-1.983-.249-.404-.473-.835-.671-1.287h2.453v3.27zm0-4.458H6.508a13.597 13.597 0 0 1-.604-3.515h3.502v3.515zm0-4.703H5.904c.05-1.224.256-2.414.604-3.515h2.898v3.515zm0-4.703H6.953c.198-.452.422-.883.671-1.287.622-1.009 1.287-1.66 1.782-1.983v3.27zm8.387 1.188c.572 1.08.911 2.273.993 3.515h-3.5a14.909 14.909 0 0 0-.554-3.515h3.061zm-1.566-2.118c.294.293.563.604.81.93h-2.705c-.264-.678-.58-1.32-.945-1.91a9.538 9.538 0 0 0-.91-1.247 8.76 8.76 0 0 1 3.75 2.227zm-5.633-2.34c.495.324 1.16.974 1.782 1.983.249.404.473.835.671 1.287h-2.453v-3.27zm0 4.458h2.898c.348 1.101.554 2.291.604 3.515h-3.502V5.89zm3.502 4.703a13.593 13.593 0 0 1-.604 3.515h-2.898v-3.515h3.502zm-3.502 7.973v-3.27h2.453c-.198.452-.422.883-.672 1.287-.621 1.009-1.286 1.66-1.78 1.983zm5.633-2.34a8.76 8.76 0 0 1-3.75 2.227c.317-.364.624-.782.91-1.246.365-.592.68-1.233.945-1.911h2.704a8.93 8.93 0 0 1-.809.93zm1.566-2.118h-3.061c.318-1.114.507-2.301.553-3.515h3.501a8.737 8.737 0 0 1-.993 3.515z"/>
</svg>
